<svg xmlns="http://www.w3.org/2000/svg" width="91.437" height="32.19" viewBox="0 0 91.437 32.19">
  <defs>
    <style>
      .cls-1 {
        fill: #040000;
        fill-rule: evenodd;
      }
    </style>
  </defs>
  <path id="aki.svg" class="cls-1" d="M685.73,5778.45a17.691,17.691,0,0,1-1.506-2.23c-0.361-.83-0.673-1.57-0.934-2.23s-0.485-1.24-.672-1.75-0.429-1.17-.723-1.99-0.636-1.8-1.024-2.95-0.753-2.23-1.1-3.2-0.666-1.86-.974-2.68q-0.9-2.43-1.907-4.54c0.026-.45.046-0.85,0.06-1.18s0.027-.61.04-0.83a3.443,3.443,0,0,0,.02-0.42v-0.6a5.044,5.044,0,0,0-.06-0.85,1.149,1.149,0,0,0-.241-0.57,1,1,0,0,0-.5-0.3,3.216,3.216,0,0,0-.843-0.09q-1.185,0-3.534,5.7a21.576,21.576,0,0,1-1.466,2.74q-0.8,1.305-1.275,2.04c-0.315.5-.526,0.81-0.633,0.95q-0.5.66-.873,1.14t-0.613.81q-0.221.315-.532,0.72c-0.208.27-.439,0.57-0.693,0.92s-0.475.64-.662,0.91-0.349.49-.482,0.68c-0.309.41-.58,0.79-0.814,1.12s-0.445.64-.632,0.91-0.395.59-.663,0.98-0.576.85-.924,1.39q-1.083,1.56-1.957,2.82c-0.583.83-1.155,1.62-1.717,2.36a17.064,17.064,0,0,1-1.245,1.52,3.344,3.344,0,0,1-1.105.99,5.916,5.916,0,0,0-1.174.31,0.577,0.577,0,0,0-.432.55,1.757,1.757,0,0,0,1,1.37,4.362,4.362,0,0,0,2.209.52,3.189,3.189,0,0,0,2.148-1.07,22.684,22.684,0,0,0,2.731-3.35c1.1-1.54,1.821-2.54,2.169-3.01a1.92,1.92,0,0,1,1.145-.79c0.883-.14,1.72-0.28,2.51-0.41s1.546-.26,2.269-0.4,1.425-.28,2.108-0.43,1.359-.31,2.028-0.5c0.2-.06.415-0.12,0.643-0.2s0.458-.16.693-0.22,0.451-.13.652-0.18a1.756,1.756,0,0,1,.5-0.08c0.241,0,.465-0.01.673-0.01a2.985,2.985,0,0,0,.6-0.09,1.876,1.876,0,0,0,.552-0.22,2.583,2.583,0,0,0,.543-0.43c0.173,0.36.455,1.12,0.843,2.27,0.094,0.28.181,0.52,0.261,0.71s0.157,0.38.231,0.55,0.147,0.32.221,0.48a4.866,4.866,0,0,1,.211.51q0.381,0.96.994,2.22a22.021,22.021,0,0,0,1.355,2.4,8.674,8.674,0,0,0,.723.93,4.657,4.657,0,0,0,.622.59,0.954,0.954,0,0,0,.583.17,1.717,1.717,0,0,0,1.335-.58,1.982,1.982,0,0,0,.512-1.37,5.53,5.53,0,0,0-1.285-2.53h0Zm-9.679-8.75c-0.763.21-1.533,0.41-2.309,0.62q-0.522.12-.893,0.21c-0.248.06-.479,0.11-0.693,0.17s-0.439.1-.673,0.16-0.512.12-.833,0.2c-0.188.04-.432,0.09-0.733,0.14s-0.616.1-.944,0.15-0.649.09-.964,0.12-0.572.05-.773,0.05a1.277,1.277,0,0,1-.4-0.08c0.629-1.12,1.248-2.18,1.857-3.17s1.225-1.96,1.847-2.9,1.269-1.89,1.938-2.83,1.379-1.91,2.129-2.93c0.307,0.62.619,1.32,0.933,2.11s0.623,1.61.924,2.46,0.592,1.7.874,2.55,0.542,1.64.783,2.38C677.5,5769.3,676.814,5769.5,676.051,5769.7Zm48.884-1.49a1.881,1.881,0,0,0-.091-0.43,1.172,1.172,0,0,0-.19-0.34,0.394,0.394,0,0,0-.3-0.14,2.039,2.039,0,0,0-.522.54c-0.294.35-.676,0.82-1.144,1.4s-1.011,1.25-1.627,1.99-1.272,1.5-1.968,2.27-1.419,1.52-2.168,2.27a26.854,26.854,0,0,1-2.229,1.98,12.364,12.364,0,0,1-2.149,1.41,4.218,4.218,0,0,1-1.927.53,4.062,4.062,0,0,1-1.747-.46,9.109,9.109,0,0,1-2.269-1.75c-0.482-.46-0.928-0.92-1.336-1.35s-0.806-.85-1.195-1.25-0.77-.76-1.144-1.09a9.609,9.609,0,0,0-1.205-.92c0.375-.46.75-0.9,1.125-1.33s0.769-.87,1.184-1.32,0.867-.91,1.356-1.39,1.034-1,1.636-1.57q0.6-.555,1.386-1.2c0.522-.43,1.014-0.86,1.476-1.28a13,13,0,0,0,1.174-1.2,1.649,1.649,0,0,0,.482-1,1.918,1.918,0,0,0-.11-0.59,1.992,1.992,0,0,0-.342-0.62,1.506,1.506,0,0,0-.592-0.45,1.381,1.381,0,0,0-.843-0.08,3.806,3.806,0,0,0-1.677.82,12.28,12.28,0,0,0-1.586,1.52q-0.753.855-1.406,1.74c-0.435.6-.813,1.1-1.134,1.52-0.523.66-1.068,1.32-1.637,2.01s-1.145,1.36-1.727,2.04-1.161,1.34-1.737,1.99-1.131,1.29-1.667,1.89c0.107-.65.235-1.55,0.382-2.69s0.321-2.52.522-4.14q0.1-.795.341-2.31,0.242-1.5.683-3.93c0.013-.09.057-0.33,0.131-0.69s0.163-.81.271-1.33,0.221-1.07.341-1.68,0.231-1.18.331-1.74,0.184-1.08.251-1.54a8,8,0,0,0,.1-1.03,2.51,2.51,0,0,0-.07-0.53,1.81,1.81,0,0,0-.271-0.59,1.6,1.6,0,0,0-.573-0.49,2.093,2.093,0,0,0-.974-0.2,1.528,1.528,0,0,0-.823.23,2.318,2.318,0,0,0-.622.58,2.648,2.648,0,0,0-.392.78,2.74,2.74,0,0,0-.131.82c-0.08,1.53-.18,3.18-0.3,4.97s-0.288,3.54-.5,5.27c-0.134,1.11-.261,2.19-0.381,3.22s-0.245,2.07-.372,3.09-0.258,2.03-.391,3.05-0.281,2.06-.442,3.13q-0.081.585-.191,1.23c-0.074.42-.147,0.86-0.221,1.29s-0.134.87-.18,1.3a10.71,10.71,0,0,0-.071,1.2,2.481,2.481,0,0,0,.191,1.13,0.95,0.95,0,0,0,.914.36,3.342,3.342,0,0,0,.974-0.13,1.218,1.218,0,0,0,.622-0.46,2.1,2.1,0,0,0,.331-0.86,7.515,7.515,0,0,0,.1-1.34q0-.465.03-0.93a3.692,3.692,0,0,1,.13-0.8,3.13,3.13,0,0,1,.442-0.92,14.125,14.125,0,0,1,.864-1.13q0.12-.135.351-0.39c0.154-.17.311-0.34,0.472-0.5s0.3-.32.432-0.46,0.2-.21.231-0.24a5.205,5.205,0,0,1,1.1.86c0.375,0.37.76,0.78,1.155,1.24s0.809,0.96,1.245,1.49,0.893,1.05,1.375,1.57q0.543,0.585,1.135,1.11a8.153,8.153,0,0,0,1.245.91,5.809,5.809,0,0,0,1.385.61,5.275,5.275,0,0,0,1.556.23,6.257,6.257,0,0,0,2.591-.6,13.633,13.633,0,0,0,2.63-1.57,24.13,24.13,0,0,0,2.54-2.24c0.824-.84,1.6-1.7,2.34-2.57s1.412-1.75,2.028-2.6,1.148-1.63,1.6-2.32,0.8-1.26,1.044-1.72a3.517,3.517,0,0,0,.372-0.78C724.955,5768.48,724.948,5768.35,724.935,5768.21Zm6.675-16.6a4.012,4.012,0,0,0-1.768-.31,2.455,2.455,0,0,0-.9.4,5.284,5.284,0,0,0-1.476,1.46,3.243,3.243,0,0,0-.613,1.87,0.982,0.982,0,0,0,.964.79,7.607,7.607,0,0,0,1.787.24,2.238,2.238,0,0,0,1.948-.93,3.608,3.608,0,0,0,.683-2.22A1.312,1.312,0,0,0,731.61,5751.61Zm13.594,16.94a0.49,0.49,0,0,0-.422-0.44,0.1,0.1,0,0,0-.12.04,0.985,0.985,0,0,0-.121.15c-0.04.06-.077,0.12-0.11,0.18s-0.057.1-.071,0.13q-0.522.66-1.224,1.44c-0.469.53-1,1.09-1.587,1.69s-1.191,1.19-1.807,1.76-1.258,1.13-1.928,1.69a21.871,21.871,0,0,1-1.968,1.53c-0.656.46-1.312,0.87-1.967,1.25a7.416,7.416,0,0,1-3.454,1.08c-0.978,0-1.654-.7-2.028-2.11a15.53,15.53,0,0,1-.563-4.09c0-.62.041-1.35,0.121-2.18s0.207-1.79.381-2.84q0.141-.855.272-1.71a10.632,10.632,0,0,0,.13-1.55q0-1.02-.542-1.02a3.065,3.065,0,0,0-1.928.74,3.277,3.277,0,0,0-1.185,1.65,10.425,10.425,0,0,0-.261,1.26c-0.08.52-.16,1.15-0.241,1.87-0.16,1.45-.241,2.51-0.241,3.19a23.22,23.22,0,0,0,.482,4.76,9.075,9.075,0,0,0,1.828,3.98,4.634,4.634,0,0,0,3.775,1.62,8.794,8.794,0,0,0,5.02-2.08q1.425-1.05,2.681-2.16c0.836-.75,1.629-1.52,2.379-2.32,0.656-.7,1.282-1.39,1.878-2.09s1.117-1.35,1.566-1.96a14.685,14.685,0,0,0,1.064-1.63,2.446,2.446,0,0,0,.372-1.15,1.86,1.86,0,0,0-.181-0.68h0Z" transform="translate(-653.938 -5751.31)"/>
</svg>
