<svg xmlns="http://www.w3.org/2000/svg" width="57.469" height="50.31" viewBox="0 0 57.469 50.31">
  <defs>
    <style>
      .cls-1 {
        fill: #040000;
        fill-rule: evenodd;
      }
    </style>
  </defs>
  <path id="n.svg" class="cls-1" d="M627.89,4579.91q-2-1.38-3.964,1.13-7.85,13.815-16.4,13.82a3.32,3.32,0,0,1-3.139-1.49c-1-1.21-1.23-4.11-.706-8.72q1.334-12-6.358-12-5.966,0-10.831,5.96,7.377-12.315,12.715-19.54a14.533,14.533,0,0,0,2.276-4.01q0.942-3.6-1.531-4.23t-4.513,2.74q-1.1,2.52-6.553,11.62t-15.109,26.84c-1.361,2.78-2.041,4.63-2.041,5.57a3.526,3.526,0,0,0,1.492,2.99,2.44,2.44,0,0,0,2.2.31q1.333-.54,2.512-3.77a58.838,58.838,0,0,1,11.145-16.09q3.374-3.45,6.75-3.45,2.982,0,2.041,7.61-0.63,6.675.157,9.42,1.883,5.97,8.79,5.97,12.871,0,21.976-16.96A2.661,2.661,0,0,0,627.89,4579.91Z" transform="translate(-571.719 -4550.72)"/>
</svg>
