<svg xmlns="http://www.w3.org/2000/svg" width="51.5" height="50.41" viewBox="0 0 51.5 50.41">
  <defs>
    <style>
      .cls-1 {
        fill: #040000;
        fill-rule: evenodd;
      }
    </style>
  </defs>
  <path id="te.svg" class="cls-1" d="M473.224,4533.88c0.339,2.14,2.027,2.85,5.062,2.11,1.1-.31,3.532-1.19,7.3-2.62s9.288-3.26,16.561-5.46q-11.067,13.26-9.968,25.9,1.413,15.615,19.308,15.62,8.476,0,9.732-3.06a2.065,2.065,0,0,0-.627-2.43,4.043,4.043,0,0,0-3.218-1.26,13.485,13.485,0,0,0-2.355.24,31.185,31.185,0,0,1-5.651.47q-5.495,0-8.4-2.4c-1.937-1.59-3.114-4.28-3.532-8.04q-0.865-9.18,8.4-21.82a12.644,12.644,0,0,1,9.5-5.65q1.569-.24,6.043-0.79,3.688-.465,3.218-3.06-0.235-3.06-5.023-2.51-1.962.24-18.052,4.39-21.585,5.895-23,5.97l-2.276.47Q472.714,4530.655,473.224,4533.88Z" transform="translate(-473.156 -4519.03)"/>
</svg>
