<svg xmlns="http://www.w3.org/2000/svg" width="91.719" height="18.6" viewBox="0 0 91.719 18.6">
  <defs>
    <style>
      .cls-1 {
        fill: #040000;
        fill-rule: evenodd;
      }
    </style>
  </defs>
  <path id="therapist.svg" class="cls-1" d="M658.21,5339.91a11.817,11.817,0,0,1-.145-1.33c-0.334.14-1.68,0.59-2.79,0.9a0.167,0.167,0,0,1-.131-0.12c-0.45-1.62-.67-2.68-0.733-3.08a0.826,0.826,0,0,0-.41.14,7.213,7.213,0,0,1-1.185,1.47l0.546,1.97a0.2,0.2,0,0,1-.047.18,5.452,5.452,0,0,1-1.017.56,1.859,1.859,0,0,0,0,.82l1.275-.25a0.235,0.235,0,0,1,.2.17c0.257,0.92.812,3.01,1.178,4.33a5.667,5.667,0,0,0,1.056,2.55,2.256,2.256,0,0,0,2.344.54,3.118,3.118,0,0,0,2.007-1.65,2.031,2.031,0,0,0-.129-0.74,2.451,2.451,0,0,1-1.325.79,1.413,1.413,0,0,1-1.616-.52,6.122,6.122,0,0,1-.6-1.63c-0.338-1.12-.9-3.16-1.182-4.25a0.149,0.149,0,0,1,.06-0.14C656.445,5340.37,657.632,5340.07,658.21,5339.91Zm1.1-7.13a8.485,8.485,0,0,1,1.163-.06,0.593,0.593,0,0,1,.577.54c0.249,0.86.557,2.36,1.724,8.05,0.111,0.54.661,3.35,0.753,3.91,0.112,0.67.061,0.9-.31,1.12a3.873,3.873,0,0,1-.812.34,0.868,0.868,0,0,0,.14.68c0.4-.08,1.043-0.29,2.242-0.53,1.364-.28,2.178-0.37,2.484-0.44a0.779,0.779,0,0,0-.116-0.68c-0.433.04-.631,0.03-0.923,0.04-0.528-.07-0.637-0.24-0.838-0.98-0.182-.65-0.785-3.59-1.117-5.21a0.826,0.826,0,0,1,.166-0.62,3.284,3.284,0,0,1,1.7-1.02,2.118,2.118,0,0,1,2.534,1.25,38.221,38.221,0,0,1,1.034,4.56c0.17,0.95.109,1.13-.219,1.32a5.88,5.88,0,0,1-.907.36,1.01,1.01,0,0,0,.163.68c0.3-.09,1.3-0.34,2.22-0.53,1.034-.21,1.966-0.33,2.365-0.41a0.882,0.882,0,0,0-.045-0.7,3.388,3.388,0,0,1-1.21-.05,0.656,0.656,0,0,1-.427-0.52c-0.235-1.03-.655-3.08-0.92-4.37-0.473-2.31-1.83-3.55-3.687-3.17a5.927,5.927,0,0,0-2.909,2.07c-0.042.03-.113,0.05-0.122,0-0.135-.66-0.762-3.71-1.037-5.18-0.305-1.6-.306-1.85-0.2-2.26a0.585,0.585,0,0,0-.232-0.3,12.181,12.181,0,0,1-3.368,1.5A0.632,0.632,0,0,0,659.314,5332.78Zm24.409,8.63a4.149,4.149,0,0,1-2.59,1.34,3.343,3.343,0,0,1-2.727-.72,4.228,4.228,0,0,1-1.281-2.31,0.257,0.257,0,0,1,.111-0.28,39.809,39.809,0,0,0,6.175-1.3,1.1,1.1,0,0,0,.122-0.57,0.453,0.453,0,0,1-.39-0.22c-0.357-1.31-1.447-3.25-3.757-2.97a5.376,5.376,0,0,0-2.475,1.11,4.938,4.938,0,0,0-1.557,4.57,5.373,5.373,0,0,0,1.831,3.62,3.858,3.858,0,0,0,3.048.78,5.52,5.52,0,0,0,3.564-2.26,1.586,1.586,0,0,0,.039-0.65A0.52,0.52,0,0,0,683.723,5341.41Zm-4.963-6.03c1.287-.16,2.242,1.1,2.51,2.28a0.35,0.35,0,0,1-.092.23,35.478,35.478,0,0,1-4.032.64,0.175,0.175,0,0,1-.14-0.15C676.914,5336.68,677.617,5335.52,678.76,5335.38Zm13.395-2.06a2,2,0,0,0-1.195.53,7.676,7.676,0,0,0-1.419,1.6c-0.046.03-.118,0.03-0.122-0.04-0.028-.46-0.067-1.51-0.063-1.85a0.131,0.131,0,0,0-.125-0.09,9.143,9.143,0,0,1-2.87,1.06,1.19,1.19,0,0,0-.088.54c1.1,0.32,1.31.59,1.378,0.93,0.041,0.28.084,1,.137,1.89,0.1,1.65.194,3.64,0.169,4.03a0.663,0.663,0,0,1-.391.69,4.084,4.084,0,0,1-.923.25,0.978,0.978,0,0,0,.042.69c0.43-.05,1.648-0.17,2.391-0.21,0.958-.06,2.52-0.08,2.807-0.1a1,1,0,0,0,.055-0.7,7.935,7.935,0,0,1-1.524-.15,0.72,0.72,0,0,1-.549-0.73c-0.053-.48-0.224-2.95-0.322-4.58a2.118,2.118,0,0,1,.143-0.82,1.819,1.819,0,0,1,1.209-1.08,2.574,2.574,0,0,1,1.6.65,1.709,1.709,0,0,0,.186-0.11,5.524,5.524,0,0,0,.652-1.56,1.012,1.012,0,0,0-.023-0.38A1.318,1.318,0,0,0,692.155,5333.32Zm9.1,3.46a3.021,3.021,0,0,1-.034.64,0.382,0.382,0,0,1-.148.24c-0.919.44-3.762,1.07-4.561,1.49a3.438,3.438,0,0,0-.454,1.36,3.177,3.177,0,0,0,.782,2.13,2.069,2.069,0,0,0,1.311.62,6.885,6.885,0,0,0,2.876-1.2,0.069,0.069,0,0,1,.1.02,2.176,2.176,0,0,0,.182.6,1.216,1.216,0,0,0,1.214.65,2.807,2.807,0,0,0,1.982-.81,1.8,1.8,0,0,0,.107-0.72,2.374,2.374,0,0,1-.842.11,0.834,0.834,0,0,1-.9-0.98c0.015-.96.14-2.8,0.16-4.05a4.588,4.588,0,0,0-.514-2.39,2.741,2.741,0,0,0-2.356-1.31,7.772,7.772,0,0,0-3.165,1.27,4.759,4.759,0,0,0-.575,1.41,0.8,0.8,0,0,0,.688.49,5.267,5.267,0,0,1,1.036-1.71,1.614,1.614,0,0,1,.964-0.23,2.217,2.217,0,0,1,1.81.94A2.494,2.494,0,0,1,701.251,5336.78Zm-0.051,1.7c-0.007.41-.031,1.97-0.087,2.47a0.642,0.642,0,0,1-.273.55,2.33,2.33,0,0,1-1.23.36,1.57,1.57,0,0,1-1.655-1.65,1.4,1.4,0,0,1,.253-0.77,19.617,19.617,0,0,1,2.873-1.06A0.141,0.141,0,0,1,701.2,5338.48Zm5.84-3.75a3.456,3.456,0,0,1,1.1.39,0.88,0.88,0,0,1,.295.85c-0.018.84-.075,1.87-0.346,5.02-0.328,3.88-.467,5.34-0.547,6.05-0.132.76-.246,0.99-0.738,1.12l-1.047.16a1.06,1.06,0,0,0-.057.72,45.556,45.556,0,0,1,4.736.08l0.957,0.08a0.883,0.883,0,0,0,.15-0.69c-0.5-.09-1.115-0.21-1.42-0.3a0.77,0.77,0,0,1-.649-0.94c0.018-.85.094-2.12,0.221-3.74a0.14,0.14,0,0,1,.126-0.07,4.639,4.639,0,0,0,.946.22,6.906,6.906,0,0,0,4.036-1.12,5.328,5.328,0,0,0,2.427-4.24,4.811,4.811,0,0,0-.879-3.23,3.229,3.229,0,0,0-2.282-1.28,6.409,6.409,0,0,0-3.536,1.19,0.089,0.089,0,0,1-.116-0.06,14.4,14.4,0,0,1,.19-1.5c0-.05-0.127-0.23-0.178-0.18a11.881,11.881,0,0,1-3.293.85A0.8,0.8,0,0,0,707.04,5334.73Zm5.624,0.41a2.525,2.525,0,0,1,1.959,1.12,4.571,4.571,0,0,1,.594,2.86,3.965,3.965,0,0,1-1.343,3,2.551,2.551,0,0,1-1.725.52,2.979,2.979,0,0,1-1.845-.73,1.432,1.432,0,0,1-.393-1.13c0.064-.82.286-3.95,0.381-4.55a0.664,0.664,0,0,1,.279-0.48A3.451,3.451,0,0,1,712.664,5335.14Zm12.058-3.53a1.223,1.223,0,0,0-.14-0.72,1.039,1.039,0,0,0-.662-0.29,2.013,2.013,0,0,0-1.2.27,1.147,1.147,0,0,0-.217.67,1.178,1.178,0,0,0,.479,1.06,2.337,2.337,0,0,0,1.076.11A1.57,1.57,0,0,0,724.722,5331.61Zm-0.357,12.7a7.047,7.047,0,0,1-.97-0.33,0.738,0.738,0,0,1-.384-0.88c0.128-1.07.355-2.66,0.542-3.97,0.206-1.45.464-3.08,0.616-4.15a11.382,11.382,0,0,1-3.187.24,0.717,0.717,0,0,0-.176.56,3.238,3.238,0,0,1,1.059.73,0.758,0.758,0,0,1,.1.53c-0.067.47-.166,1.33-0.3,2.26-0.186,1.3-.409,2.87-0.542,3.46a0.769,0.769,0,0,1-.549.79,4.786,4.786,0,0,1-1.052.07,0.883,0.883,0,0,0-.1.69c0.4,0.06,1.341.12,2.339,0.26,1.212,0.17,1.962.35,2.413,0.42A0.994,0.994,0,0,0,724.365,5344.31Zm10.3-7.13c-0.183-.06-0.551-0.18-0.914-0.32a9.87,9.87,0,0,0-1.5-.45c-2.307-.45-3.721.64-4.009,2.1-0.245,1.25.27,2.23,1.992,3.55,1.321,0.99,1.68,1.53,1.513,2.37a1.4,1.4,0,0,1-1.837,1.01,2.851,2.851,0,0,1-1.122-.51,3.317,3.317,0,0,1-.958-2.47,1.2,1.2,0,0,0-.724.08,16.824,16.824,0,0,0-.11,2.67,7.4,7.4,0,0,0,2.384.93c2.119,0.42,3.933-.47,4.267-2.16,0.222-1.13-.114-2.03-1.892-3.31-1.623-1.2-1.93-1.75-1.772-2.55a1.385,1.385,0,0,1,1.728-1.08,2.159,2.159,0,0,1,1.1.51,2.223,2.223,0,0,1,.447,1.95,0.861,0.861,0,0,0,.645.08A16.714,16.714,0,0,1,734.67,5337.18Zm8.793,3.45a11.41,11.41,0,0,1,.537-1.23c-0.36-.04-1.749-0.32-2.865-0.61a0.161,0.161,0,0,1-.057-0.16,31.287,31.287,0,0,1,.9-3.04,0.884,0.884,0,0,0-.425-0.08,7.381,7.381,0,0,1-1.761.68l-0.507,1.98a0.244,0.244,0,0,1-.135.14,5.807,5.807,0,0,1-1.158-.03,1.841,1.841,0,0,0-.406.72l1.231,0.41a0.24,0.24,0,0,1,.086.25c-0.239.92-.8,3.01-1.139,4.34a5.634,5.634,0,0,0-.355,2.73,2.255,2.255,0,0,0,1.759,1.64,3.154,3.154,0,0,0,2.563-.43,2,2,0,0,0,.255-0.71,2.446,2.446,0,0,1-1.543.03,1.42,1.42,0,0,1-1.138-1.26,6.211,6.211,0,0,1,.29-1.71c0.269-1.14.794-3.19,1.1-4.27a0.158,0.158,0,0,1,.123-0.1C741.7,5340.15,742.882,5340.48,743.463,5340.63Z" transform="translate(-652.281 -5330.59)"/>
</svg>
