<svg xmlns="http://www.w3.org/2000/svg" width="38.937" height="53" viewBox="0 0 38.937 53">
  <defs>
    <style>
      .cls-1 {
        fill: #040000;
        fill-rule: evenodd;
      }
    </style>
  </defs>
  <path id="to.svg" class="cls-1" d="M674.817,4554.74q0,11.85,21.034,11.85a53.857,53.857,0,0,0,13.343-1.26q3.689-.945,4.4-3.06a2.15,2.15,0,0,0-.628-2.43,4.332,4.332,0,0,0-3.061-1.26,21.184,21.184,0,0,0-4.081.94,38.7,38.7,0,0,1-12.323,1.73q-12.714,0-12.714-6.75,0.156-5.565,9.379-10.09a54.34,54.34,0,0,1,16.757-5.45c2.459-.52,3.453-1.85,2.982-3.96s-2.59-2.63-6.357-1.53a60.64,60.64,0,0,0-7.143,2.66q-2.2.48-3.178-5.25a66.345,66.345,0,0,1-.746-13.19q0.156-3.93-3.061-4.08-2.512.075-3.1,1.92a13.044,13.044,0,0,0-.275,5.06q1.569,15.945,4.945,17.82-16.17,8.64-16.168,16.33h0Z" transform="translate(-674.813 -4513.59)"/>
</svg>
