<svg xmlns="http://www.w3.org/2000/svg" width="316.625" height="27.78" viewBox="0 0 316.625 27.78">
  <defs>
    <style>
      .cls-1 {
        fill: #040000;
        fill-rule: evenodd;
      }
    </style>
  </defs>
  <path id="tx_tsunaide.svg" class="cls-1" d="M542.065,4390.5c0.547,1.19,1.029,1.96,1.254,1.96a0.574,0.574,0,0,0,.289-0.16,19.417,19.417,0,0,1,5.016-2.29,31.4,31.4,0,0,1,10.063-2.05c4.083,0,6.623,2.21,6.623,5.85,0,2.99-1.865,5.59-5.208,7.23a25.22,25.22,0,0,1-9,2.44,1.971,1.971,0,0,1,.74.91,0.447,0.447,0,0,0,.482.35,29.179,29.179,0,0,0,3.569-.61,18.049,18.049,0,0,0,6.816-2.8,8.932,8.932,0,0,0,4.212-7.65,6.881,6.881,0,0,0-2.83-5.53,9.475,9.475,0,0,0-5.626-1.48c-3.312,0-7.105.84-12.989,2.89A20.732,20.732,0,0,1,542.065,4390.5Zm47.644-3.7c0.29-.93.579-1.8,0.8-2.61a6.59,6.59,0,0,1,.74-1.83,0.616,0.616,0,0,0,.16-0.38c0-.2-0.771-0.49-1.993-0.74a21.233,21.233,0,0,1-1.222,5.78,35.859,35.859,0,0,1-5.562.42c-0.418,0-.739,0-1.382-0.03,0.128,1.35.128,1.35,0.739,1.35,1.479,0,4.148-.19,5.53-0.35a0.515,0.515,0,0,1,.257-0.04,46.083,46.083,0,0,1-3.311,7.62,32.722,32.722,0,0,1-3.119,4.7,0.227,0.227,0,0,0-.032.13,0.4,0.4,0,0,0,.257.32,2.043,2.043,0,0,0,.868.54,0.447,0.447,0,0,0,.258-0.16,47.13,47.13,0,0,0,6.591-13.37c0.1,0,.128-0.03.321-0.03,1.254-.2,4.437-0.81,5.3-1a0.3,0.3,0,0,0,.193-0.35,3.89,3.89,0,0,0-.1-0.74c-0.032-.23-0.1-0.32-0.257-0.32h-0.128A37.648,37.648,0,0,1,589.709,4386.8Zm15.98,3.86a13.693,13.693,0,0,0-2.894-1.96,12.417,12.417,0,0,0-3.087-1.29,0.252,0.252,0,0,0-.225.16,4.291,4.291,0,0,0-.45.74v0.06a0.2,0.2,0,0,0,.1.16,16.76,16.76,0,0,1,5.658,3.44,0.3,0.3,0,0,0,.193.1,2.269,2.269,0,0,0,.8-1.22A0.342,0.342,0,0,0,605.689,4390.66Zm-1.158,13.24a22.037,22.037,0,0,0-5.851-3.44c-0.225-2.57-.354-5.08-0.354-7.07a2.983,2.983,0,0,1,.161-1.13,0.829,0.829,0,0,0,.128-0.35c0-.16-0.321-0.26-1.125-0.35a3.534,3.534,0,0,1-.643-0.07c0.032,0.58.1,1.22,0.1,1.9,0.033,2.31.065,3.09,0.258,5.37,0,0.29.064,0.74,0.1,1.32a11.665,11.665,0,0,0-2.958-.39c-3.183,0-5.433,1.67-5.433,4.02,0,2.19,1.9,3.67,4.694,3.67,3.376,0,5.144-1.52,5.144-4.44,0-.19,0-0.58-0.032-1.03a23.5,23.5,0,0,1,4.983,3.31,0.258,0.258,0,0,0,.129.03,2.184,2.184,0,0,0,.8-1.19A0.326,0.326,0,0,0,604.531,4403.9Zm-7.17-2.34a3.077,3.077,0,0,1,.033.8c0,2.54-1.126,3.63-3.762,3.63-2.186,0-3.408-.83-3.408-2.38,0-1.6,1.575-2.63,3.987-2.63A8.129,8.129,0,0,1,597.361,4401.56Zm46.873-2.67a19.287,19.287,0,0,0-2.25-6.4,13.866,13.866,0,0,0-2.926-3.76,0.6,0.6,0,0,0-.322-0.2,3.372,3.372,0,0,0-1.189.52,14.579,14.579,0,0,1,3.44,4.85,22.758,22.758,0,0,1,1.64,5.89c0.032,0.29.064,0.35,0.225,0.35a4.424,4.424,0,0,0,1-.29c0.386-.13.483-0.22,0.483-0.45a0.6,0.6,0,0,0-.032-0.22Zm-13.6.16c-1.157,3.53-2.6,5.53-3.986,5.53a2.257,2.257,0,0,1-1.672-.93c-1.447-1.61-2.283-5.92-2.283-11.74a27.472,27.472,0,0,1,.322-5.79,1.032,1.032,0,0,0,.1-0.35c0-.29-0.836-0.61-2.058-0.84a9.674,9.674,0,0,1,.193,2.25v0.81c-0.032,2.02-.064,3.47-0.064,3.76a46.128,46.128,0,0,0,.418,5.69,17.5,17.5,0,0,0,1.8,6.49,3.913,3.913,0,0,0,3.28,2.19c1.125,0,2.186-.67,3.183-2.09a12.757,12.757,0,0,0,1.575-3.05,0.6,0.6,0,0,0,.064-0.29,0.479,0.479,0,0,0-.16-0.32A3.462,3.462,0,0,1,630.634,4399.05Zm49.413-10.39a0.3,0.3,0,0,0,.161.26,14.228,14.228,0,0,1,2.443,2.54c0.676,0.93.676,0.93,0.836,0.93a1.146,1.146,0,0,0,.836-0.74,9.331,9.331,0,0,0-1.961-2.41c-1.093-1.06-1.286-1.22-1.511-1.22A1.194,1.194,0,0,0,680.047,4388.66Zm-1.382,1.16a1.132,1.132,0,0,0-.772.71,0.2,0.2,0,0,0,.129.19,15.852,15.852,0,0,1,3.022,3.38,0.337,0.337,0,0,0,.289.19,1.4,1.4,0,0,0,.933-0.8,3.505,3.505,0,0,0-1.029-1.39A9.309,9.309,0,0,0,678.665,4389.82Zm-20.9-2.83c0.321,1.16.771,2.06,1.028,2.06a0.782,0.782,0,0,0,.45-0.16,10.174,10.174,0,0,1,2.862-.81c3.408-.7,7.427-1.38,13.407-2.31a16.9,16.9,0,0,0-4.533,3.86,12.429,12.429,0,0,0-2.894,7.91c0,4.14,1.961,6.81,6.141,8.36a21.241,21.241,0,0,0,4.051,1.06c0.193,0,.354-0.42.418-1.19a1.724,1.724,0,0,1,.032-0.26v-0.03c0-.13-0.064-0.16-0.514-0.23a15.118,15.118,0,0,1-5.016-1.54,6.583,6.583,0,0,1-3.7-6.14,12.931,12.931,0,0,1,6.848-11.06,12.653,12.653,0,0,1,5.208-1.25h0.258a1.419,1.419,0,0,0,.321.03,0.165,0.165,0,0,0,.193-0.13,9.078,9.078,0,0,0-.257-1.32c-0.065-.29-0.129-0.39-0.257-0.39a0.2,0.2,0,0,0-.129.04,19.568,19.568,0,0,1-2.219.38c-5.433.81-13.921,2.12-14.853,2.29A40.333,40.333,0,0,1,657.767,4386.99Zm37.356,15.4a0.289,0.289,0,0,0,.16.23,15.978,15.978,0,0,1,4.92,4.53c1.093,1.64,1.093,1.64,1.221,1.64a3.018,3.018,0,0,0,1.093-1.13,18.206,18.206,0,0,0-2.8-3.53,14.9,14.9,0,0,0-3.729-2.7A2.307,2.307,0,0,0,695.123,4402.39Zm44.622-6.11c1.125-.54,1.575-0.77,2.926-1.51l-0.032-1.25c-1.608.87-2.122,1.16-2.894,1.51v-6.66h1.318a12.837,12.837,0,0,1,2.026.13v-1.38a11.278,11.278,0,0,1-2.026.13h-1.318v-3.12a16.121,16.121,0,0,1,.193-3.12H738.3a20.225,20.225,0,0,1,.193,3.15v3.09h-1.929a7.991,7.991,0,0,1-2.122-.19v1.51a12.293,12.293,0,0,1,2.122-.2h1.929v7.27a18.821,18.821,0,0,1-4.4,1.58l0.483,1.41c0.707-.35.964-0.48,1.35-0.64,0.643-.23,1.833-0.77,2.572-1.1v9.39c0,0.52-.161.65-0.771,0.65a21.338,21.338,0,0,1-3.183-.26,4.145,4.145,0,0,1,.257,1.28c0.771,0.07,1.8.1,2.765,0.1,1.736,0,2.186-.35,2.186-1.74v-10.03Zm15.272-10.41H749.2v-2.67a9.61,9.61,0,0,1,.161-2.12h-1.575a11.709,11.709,0,0,1,.161,2.09v2.7h-1.833a15.016,15.016,0,0,1-2.7-.16v1.44a15.4,15.4,0,0,1,2.7-.16h1.833v2.06a10.687,10.687,0,0,1-.129,1.83h1.511a10.385,10.385,0,0,1-.129-1.86v-2.03h5.82v2.03a11.318,11.318,0,0,1-.129,1.89H756.4a10.975,10.975,0,0,1-.128-1.89v-2.03h2.411a20.586,20.586,0,0,1,2.99.19v-1.51a18.264,18.264,0,0,1-2.99.2h-2.411v-2.67a11.356,11.356,0,0,1,.16-2.12h-1.543a14.007,14.007,0,0,1,.129,2.12v2.67Zm-10.964,19.29a21.879,21.879,0,0,1-.16,3.15h1.414v-1.87h13.568v1.87h1.447a22.708,22.708,0,0,1-.193-3.09v-10.64a17.024,17.024,0,0,1,.128-2.54,20.444,20.444,0,0,1-2.8.13H746.69a19.12,19.12,0,0,1-2.733-.13,19.353,19.353,0,0,1,.1,2.73v10.39Zm14.822-11.83v5.07h-6.237v-5.07h6.237Zm-7.459,5.07h-6.109v-5.07h6.109v5.07Zm0,6.89h-6.109v-5.76h6.109v5.76Zm7.459-5.76v5.76h-6.237v-5.76h6.237Zm33.787-14.4a39.69,39.69,0,0,1-4.855.32,35.556,35.556,0,0,1-8.359-.97,4.192,4.192,0,0,0-.193,1.16,0.3,0.3,0,0,0,.225.29,39.554,39.554,0,0,0,9.131.96,40.311,40.311,0,0,0,4.276-.22c0.161-.06.193-0.13,0.193-0.39a7.054,7.054,0,0,0-.064-0.9C792.984,4385.19,792.919,4385.13,792.662,4385.13Zm3.312,18.23a39.051,39.051,0,0,1-8.649.96c-3.376,0-5.626-.48-7.33-1.57a6.006,6.006,0,0,1-2.444-3.28c-1,.61-1.093.7-1.093,0.93v0.09a8.536,8.536,0,0,0,1.768,2.8c1.769,1.77,4.6,2.54,9.228,2.54a48.7,48.7,0,0,0,8.681-.83,0.348,0.348,0,0,0,.225-0.39c0-.19-0.033-0.84-0.065-1.03,0-.19-0.064-0.26-0.193-0.26A0.164,0.164,0,0,0,795.974,4403.36Zm33.594-19.97a25.562,25.562,0,0,1-8.488-1.83,0.123,0.123,0,0,0-.1-0.03,2.027,2.027,0,0,0-.514,1.09,0.216,0.216,0,0,0,.16.22,30.205,30.205,0,0,0,8.81,2.06c0.257,0,.289-0.16.289-1.19C829.729,4383.49,829.7,4383.42,829.568,4383.39Zm-13.407,8.1c0.611,1.26,1,1.77,1.254,1.77a2.368,2.368,0,0,0,.386-0.19,18.869,18.869,0,0,1,8.584-2.7c2.83,0,4.469,1.89,4.469,5.21a9.812,9.812,0,0,1-4.5,8.32,18.978,18.978,0,0,1-5.658,2.61,3.01,3.01,0,0,1,1.028.67c0.322,0.36.322,0.36,0.547,0.36a18.772,18.772,0,0,0,4.533-2.13,11.074,11.074,0,0,0,5.53-9.77c0-4.15-2.186-6.56-5.915-6.56a19.482,19.482,0,0,0-5.82,1.19A22.057,22.057,0,0,1,816.161,4391.49Zm38,8.04a4.55,4.55,0,1,0,4.533,4.57A4.55,4.55,0,0,0,854.161,4399.53Zm0,1.32a3.23,3.23,0,1,1-3.216,3.21A3.226,3.226,0,0,1,854.161,4400.85Z" transform="translate(-542.063 -4381)"/>
</svg>
